<svg xmlns="http://www.w3.org/2000/svg" width="880" height="240" viewBox="0 0 880 240" font-family="'Fira Code','JetBrains Mono',Consolas,'Courier New',monospace">
  <style>
    .step { opacity: 0; animation: step 9.0s ease-out infinite; }
    @keyframes step {
      0%   { opacity: 0; }
      2%   { opacity: 1; }
      18%  { opacity: 0.55; }
      40%  { opacity: 0; }
      100% { opacity: 0; }
    }

    .helico { animation: helico 9.0s ease-in-out infinite; transform-origin: 0px 0px; }
    @keyframes helico {
      0%   { transform: scaleY(1); }
      3%   { transform: scaleY(0.12); }
      22%  { transform: scaleY(0.12); }
      40%  { transform: scaleY(1); }
      100% { transform: scaleY(1); }
    }

    .breathe-plant { animation: glow 3.5s ease-in-out infinite; }
    @keyframes glow { 0%, 100% { opacity: 1; } 50% { opacity: 0.4; } }

    .moss circle { animation: glow 4s ease-in-out infinite; }
    .moss circle:nth-child(2n) { animation-delay: -1.4s; animation-duration: 5s; }
    .moss circle:nth-child(3n) { animation-delay: -2.7s; }

    .vines { animation: glow 5s ease-in-out infinite; }

    .firefly { animation: firefly 8s ease-in-out infinite; }
    @keyframes firefly {
      0%, 100% { transform: translate(0, 0); opacity: 0.2; }
      25%      { transform: translate(14px, -10px); opacity: 1; }
      50%      { transform: translate(-6px, -22px); opacity: 0.4; }
      75%      { transform: translate(-16px, -8px); opacity: 1; }
    }

    .float1 { animation: float 6s ease-in-out infinite; }
    .float2 { animation: float 7s ease-in-out infinite; animation-delay: -3s; }
    @keyframes float { 0%, 100% { transform: translateY(0); } 50% { transform: translateY(-6px); } }

    .blink { animation: glow 2s ease-in-out infinite; }
  </style>
  <defs>
    <linearGradient id="night" x1="0" y1="0" x2="0" y2="1">
      <stop offset="0" stop-color="#03070F"/>
      <stop offset="0.7" stop-color="#0B1A3A"/>
      <stop offset="1" stop-color="#1A1050"/>
    </linearGradient>
    <linearGradient id="ground" x1="0" y1="0" x2="0" y2="1">
      <stop offset="0" stop-color="#0A1E3F"/>
      <stop offset="1" stop-color="#03070F"/>
    </linearGradient>
    <linearGradient id="helico" x1="0" y1="1" x2="0" y2="0">
      <stop offset="0" stop-color="#C2410C"/>
      <stop offset="1" stop-color="#FFB547"/>
    </linearGradient>
    <radialGradient id="ripple">
      <stop offset="0" stop-color="#7DF9EC" stop-opacity="0.55"/>
      <stop offset="1" stop-color="#7DF9EC" stop-opacity="0"/>
    </radialGradient>
    <linearGradient id="phrase" x1="0" y1="0" x2="1" y2="0">
      <stop offset="0" stop-color="#7DF9EC"/>
      <stop offset="1" stop-color="#E0D2FF"/>
    </linearGradient>
    <clipPath id="frame"><rect width="880" height="240" rx="16"/></clipPath>
    <filter id="glow" x="-50%" y="-50%" width="200%" height="200%">
      <feGaussianBlur stdDeviation="2" result="b"/>
      <feMerge><feMergeNode in="b"/><feMergeNode in="SourceGraphic"/></feMerge>
    </filter>
  </defs>

  <g clip-path="url(#frame)">
    <rect width="880" height="240" fill="url(#night)"/>

    <!-- Arboles -->
    <g><path d="M59.145371698386754 206 C63.197082178123864 140 59.43551253929494 60 64.57268584919338 -10 L75.42731415080662 -10 C72.46106650123083 60 84.90633878135036 140 80.85462830161325 206 Z" fill="#0C1F48" fill-opacity="0.8"/><path d="M194.7836638374858 206 C203.59071162880815 140 192.0631505111691 60 202.3918319187429 -10 L217.6081680812571 -10 C210.32275390618616 60 234.02338395383657 140 225.2163361625142 206 Z" fill="#0C1F48" fill-opacity="0.8"/><path d="M367.8310781875174 206 C362.9465884561782 140 377.5831366438497 60 373.9155390937587 -10 L386.0844609062413 -10 C392.18584281882875 60 387.2844320811434 140 392.1689218124826 206 Z" fill="#0C1F48" fill-opacity="0.8"/><path d="M504.1275250868424 206 C507.2965254516439 140 507.307514687304 60 512.0637625434213 -10 L527.9362374565787 -10 C526.354484583093 60 539.0414752779591 140 535.8724749131576 206 Z" fill="#0C1F48" fill-opacity="0.8"/><path d="M677.5760962088932 206 C681.2607587704323 140 678.8609951637968 60 683.7880481044466 -10 L696.2119518955534 -10 C693.769679713125 60 706.1085663526459 140 702.4239037911068 206 Z" fill="#0C1F48" fill-opacity="0.8"/><path d="M806.8266108397358 206 C812.3769425975381 140 806.5456347460392 60 813.4133054198679 -10 L826.5866945801321 -10 C822.3537017383562 60 838.7237209180664 140 833.1733891602642 206 Z" fill="#0C1F48" fill-opacity="0.8"/></g>
    <g class="vines" fill="#58E6D9" stroke="#58E6D9" stroke-opacity="0.45" fill-opacity="0.9" filter="url(#glow)"><g fill="none"><path d="M110 -5 C114 28 100 49 111 70"/><circle fill="#58E6D9" cx="110" cy="70" r="1.6"/><path d="M170 -5 C175 38 161 66 172 95"/><circle fill="#58E6D9" cx="170" cy="95" r="1.6"/><path d="M300 -5 C289 24 295 42 295 60"/><circle fill="#58E6D9" cx="300" cy="60" r="1.6"/><path d="M430 -5 C422 34 443 59 429 85"/><circle fill="#58E6D9" cx="430" cy="85" r="1.6"/><path d="M480 -5 C494 20 478 35 481 50"/><circle fill="#58E6D9" cx="480" cy="50" r="1.6"/><path d="M600 -5 C610 30 605 52 595 75"/><circle fill="#58E6D9" cx="600" cy="75" r="1.6"/><path d="M735 -5 C737 36 739 63 731 90"/><circle fill="#58E6D9" cx="735" cy="90" r="1.6"/><path d="M790 -5 C779 22 800 38 790 55"/><circle fill="#58E6D9" cx="790" cy="55" r="1.6"/></g></g>
    <g><path d="M122.81600430134561 206 C117.2813266275906 140 135.22428025456236 60 131.40800215067281 -10 L148.59199784932719 -10 C155.84507509294764 60 151.64931802489937 140 157.18399569865437 206 Z" fill="#071433" fill-opacity="1"/><path d="M429.98536913725303 206 C427.1460227295789 140 442.830567890026 60 442.4926845686265 -10 L467.5073154313735 -10 C472.84812492532234 60 477.1752844550728 140 480.01463086274697 206 Z" fill="#071433" fill-opacity="1"/><path d="M741.3959766804672 206 C747.481602363645 140 742.7519603251026 60 750.6979883402337 -10 L769.3020116597663 -10 C765.0767883085418 60 784.6896490027106 140 778.6040233195328 206 Z" fill="#071433" fill-opacity="1"/></g>

    <!-- Frases -->
    <g class="float1"><text x="250" y="70" text-anchor="middle" font-size="15" fill="url(#phrase)" stroke="#050B1A" stroke-width="5" stroke-linejoin="round" paint-order="stroke">Ph'ang, may your spirit go with Eywa</text></g>
    <g class="float2"><text x="640" y="130" text-anchor="middle" font-size="15" fill="url(#phrase)" stroke="#050B1A" stroke-width="5" stroke-linejoin="round" paint-order="stroke">Oel ngati kameie · I see you</text></g>

    <!-- Luciernagas -->
    <g fill="#E8FF9A" filter="url(#glow)">
      <circle class="firefly" cx="623" cy="110" r="1.2" style="animation-duration: 7.9s; animation-delay: -6.0s"/>
      <circle class="firefly" cx="417" cy="148" r="1.5" style="animation-duration: 7.7s; animation-delay: -5.3s"/>
      <circle class="firefly" cx="843" cy="56" r="1.8" style="animation-duration: 9.2s; animation-delay: -1.3s"/>
      <circle class="firefly" cx="740" cy="86" r="1.5" style="animation-duration: 8.7s; animation-delay: -1.5s"/>
      <circle class="firefly" cx="458" cy="139" r="1.5" style="animation-duration: 7.8s; animation-delay: -3.0s"/>
      <circle class="firefly" cx="583" cy="146" r="1.2" style="animation-duration: 10.0s; animation-delay: -0.2s"/>
      <circle class="firefly" cx="446" cy="59" r="1.2" style="animation-duration: 10.4s; animation-delay: -2.3s"/>
      <circle class="firefly" cx="746" cy="160" r="1.8" style="animation-duration: 8.4s; animation-delay: -6.1s"/>
      <circle class="firefly" cx="314" cy="96" r="1.8" style="animation-duration: 9.2s; animation-delay: -3.4s"/>
      <circle class="firefly" cx="458" cy="177" r="1.2" style="animation-duration: 6.1s; animation-delay: -3.1s"/>
      <circle class="firefly" cx="774" cy="72" r="1.2" style="animation-duration: 10.0s; animation-delay: -2.0s"/>
      <circle class="firefly" cx="450" cy="146" r="1.5" style="animation-duration: 7.4s; animation-delay: -4.4s"/>
      <circle class="firefly" cx="344" cy="65" r="1.8" style="animation-duration: 9.8s; animation-delay: -0.8s"/>
      <circle class="firefly" cx="711" cy="157" r="1.2" style="animation-duration: 6.3s; animation-delay: -5.4s"/>
      <circle class="firefly" cx="476" cy="178" r="1.8" style="animation-duration: 7.9s; animation-delay: -5.3s"/>
      <circle class="firefly" cx="130" cy="162" r="1.8" style="animation-duration: 8.4s; animation-delay: -1.2s"/>
    </g>

    <!-- Suelo con musgo -->
    <path d="M0 196 Q110 188 230 194 T470 196 T700 192 T880 196 V240 H0 Z" fill="url(#ground)"/>
    <path d="M0 196 Q110 188 230 194 T470 196 T700 192 T880 196" fill="none" stroke="#58E6D9" stroke-opacity="0.35"/>
    <g class="moss" fill="#58E6D9" fill-opacity="0.7"><circle cx="174" cy="209" r="0.8"/><circle cx="427" cy="206" r="1.1"/><circle cx="94" cy="216" r="0.8"/><circle cx="247" cy="202" r="0.8"/><circle cx="649" cy="202" r="1.5"/><circle cx="515" cy="209" r="1.5"/><circle cx="151" cy="208" r="1.1"/><circle cx="427" cy="209" r="1.5"/><circle cx="724" cy="205" r="1.1"/><circle cx="211" cy="217" r="1.1"/><circle cx="63" cy="203" r="1.5"/><circle cx="237" cy="209" r="1.5"/><circle cx="358" cy="220" r="0.8"/><circle cx="307" cy="211" r="1.1"/><circle cx="234" cy="206" r="0.8"/><circle cx="42" cy="211" r="1.1"/><circle cx="88" cy="202" r="0.8"/><circle cx="277" cy="220" r="1.5"/><circle cx="446" cy="210" r="1.1"/><circle cx="866" cy="202" r="0.8"/><circle cx="679" cy="200" r="1.1"/><circle cx="764" cy="205" r="0.8"/><circle cx="186" cy="214" r="1.1"/><circle cx="258" cy="215" r="1.1"/><circle cx="32" cy="218" r="1.5"/><circle cx="825" cy="215" r="1.5"/><circle cx="566" cy="204" r="1.1"/><circle cx="339" cy="219" r="1.5"/><circle cx="487" cy="218" r="1.1"/><circle cx="801" cy="212" r="0.8"/><circle cx="565" cy="209" r="1.1"/><circle cx="83" cy="216" r="0.8"/><circle cx="180" cy="214" r="0.8"/><circle cx="189" cy="210" r="0.8"/><circle cx="479" cy="208" r="0.8"/><circle cx="228" cy="207" r="1.1"/><circle cx="369" cy="209" r="0.8"/><circle cx="132" cy="215" r="0.8"/><circle cx="20" cy="218" r="1.5"/><circle cx="753" cy="216" r="1.5"/><circle cx="576" cy="211" r="0.8"/><circle cx="508" cy="209" r="1.1"/><circle cx="286" cy="202" r="1.1"/><circle cx="59" cy="214" r="1.5"/><circle cx="477" cy="202" r="0.8"/><circle cx="376" cy="220" r="0.8"/><circle cx="726" cy="219" r="0.8"/><circle cx="5" cy="214" r="0.8"/><circle cx="123" cy="208" r="1.5"/><circle cx="135" cy="218" r="1.1"/><circle cx="687" cy="210" r="1.5"/><circle cx="22" cy="202" r="1.1"/><circle cx="221" cy="214" r="1.5"/><circle cx="447" cy="211" r="0.8"/><circle cx="636" cy="200" r="1.1"/><circle cx="789" cy="217" r="1.1"/><circle cx="338" cy="206" r="1.5"/><circle cx="819" cy="201" r="0.8"/><circle cx="250" cy="211" r="1.5"/><circle cx="275" cy="204" r="1.5"/><circle cx="732" cy="209" r="1.5"/><circle cx="66" cy="209" r="1.5"/><circle cx="340" cy="212" r="1.1"/><circle cx="597" cy="219" r="1.1"/><circle cx="850" cy="216" r="1.1"/><circle cx="755" cy="210" r="1.1"/><circle cx="713" cy="219" r="0.8"/><circle cx="725" cy="204" r="0.8"/><circle cx="220" cy="202" r="1.5"/><circle cx="491" cy="201" r="1.5"/></g>

    <!-- Plantas -->
    <g fill="none" filter="url(#glow)"><g transform="translate(20 198)"><g class="breathe-plant" style="animation-delay: -3.2s" stroke="#58E6D9" fill="#58E6D9" stroke-width="1.2"><path d="M0 0 Q-5 -10 -16 -15"/><circle cx="-16" cy="-15" r="1.5"/><path d="M0 0 Q-3 -13 -12 -19"/><circle cx="-12" cy="-19" r="1.5"/><path d="M0 0 Q-2 -15 -6 -21"/><circle cx="-6" cy="-21" r="1.5"/><path d="M0 0 Q0 -15 0 -22"/><circle cx="0" cy="-22" r="1.5"/><path d="M0 0 Q2 -15 6 -21"/><circle cx="6" cy="-21" r="1.5"/><path d="M0 0 Q3 -13 12 -19"/><circle cx="12" cy="-19" r="1.5"/><path d="M0 0 Q5 -10 16 -15"/><circle cx="16" cy="-15" r="1.5"/></g></g><g transform="translate(95 198)"><g class="breathe-plant" style="animation-delay: -2.4s" stroke="#FF8AD8" fill="#FF8AD8" stroke-width="1.2"><path d="M0 0 Q-4 -7 -12 -11"/><circle cx="-12" cy="-11" r="1.5"/><path d="M0 0 Q-3 -9 -8 -14"/><circle cx="-8" cy="-14" r="1.5"/><path d="M0 0 Q-1 -11 -4 -15"/><circle cx="-4" cy="-15" r="1.5"/><path d="M0 0 Q0 -11 0 -16"/><circle cx="0" cy="-16" r="1.5"/><path d="M0 0 Q1 -11 4 -15"/><circle cx="4" cy="-15" r="1.5"/><path d="M0 0 Q3 -9 8 -14"/><circle cx="8" cy="-14" r="1.5"/><path d="M0 0 Q4 -7 12 -11"/><circle cx="12" cy="-11" r="1.5"/></g></g><g transform="translate(250 198)"><g class="breathe-plant" style="animation-delay: -1.1s" stroke="#58E6D9" fill="#58E6D9" stroke-width="1.2"><path d="M0 0 Q-4 -9 -15 -13"/><circle cx="-15" cy="-13" r="1.5"/><path d="M0 0 Q-3 -12 -11 -17"/><circle cx="-11" cy="-17" r="1.5"/><path d="M0 0 Q-2 -13 -6 -19"/><circle cx="-6" cy="-19" r="1.5"/><path d="M0 0 Q0 -14 0 -20"/><circle cx="0" cy="-20" r="1.5"/><path d="M0 0 Q2 -13 6 -19"/><circle cx="6" cy="-19" r="1.5"/><path d="M0 0 Q3 -12 11 -17"/><circle cx="11" cy="-17" r="1.5"/><path d="M0 0 Q4 -9 15 -13"/><circle cx="15" cy="-13" r="1.5"/></g></g><g transform="translate(330 198)"><g class="breathe-plant" style="animation-delay: -4.0s" stroke="#C9B3FF" fill="#C9B3FF" stroke-width="1.2"><path d="M0 0 Q-3 -7 -10 -9"/><circle cx="-10" cy="-9" r="1.5"/><path d="M0 0 Q-2 -8 -7 -12"/><circle cx="-7" cy="-12" r="1.5"/><path d="M0 0 Q-1 -9 -4 -13"/><circle cx="-4" cy="-13" r="1.5"/><path d="M0 0 Q0 -10 0 -14"/><circle cx="0" cy="-14" r="1.5"/><path d="M0 0 Q1 -9 4 -13"/><circle cx="4" cy="-13" r="1.5"/><path d="M0 0 Q2 -8 7 -12"/><circle cx="7" cy="-12" r="1.5"/><path d="M0 0 Q3 -7 10 -9"/><circle cx="10" cy="-9" r="1.5"/></g></g><g transform="translate(420 198)"><g class="breathe-plant" style="animation-delay: -1.8s" stroke="#FF8AD8" fill="#FF8AD8" stroke-width="1.2"><path d="M0 0 Q-4 -8 -13 -12"/><circle cx="-13" cy="-12" r="1.5"/><path d="M0 0 Q-3 -11 -10 -15"/><circle cx="-10" cy="-15" r="1.5"/><path d="M0 0 Q-1 -12 -5 -17"/><circle cx="-5" cy="-17" r="1.5"/><path d="M0 0 Q0 -13 0 -18"/><circle cx="0" cy="-18" r="1.5"/><path d="M0 0 Q1 -12 5 -17"/><circle cx="5" cy="-17" r="1.5"/><path d="M0 0 Q3 -11 10 -15"/><circle cx="10" cy="-15" r="1.5"/><path d="M0 0 Q4 -8 13 -12"/><circle cx="13" cy="-12" r="1.5"/></g></g><g transform="translate(560 198)"><g class="breathe-plant" style="animation-delay: -3.6s" stroke="#58E6D9" fill="#58E6D9" stroke-width="1.2"><path d="M0 0 Q-5 -10 -16 -15"/><circle cx="-16" cy="-15" r="1.5"/><path d="M0 0 Q-3 -13 -12 -19"/><circle cx="-12" cy="-19" r="1.5"/><path d="M0 0 Q-2 -15 -6 -21"/><circle cx="-6" cy="-21" r="1.5"/><path d="M0 0 Q0 -15 0 -22"/><circle cx="0" cy="-22" r="1.5"/><path d="M0 0 Q2 -15 6 -21"/><circle cx="6" cy="-21" r="1.5"/><path d="M0 0 Q3 -13 12 -19"/><circle cx="12" cy="-19" r="1.5"/><path d="M0 0 Q5 -10 16 -15"/><circle cx="16" cy="-15" r="1.5"/></g></g><g transform="translate(640 198)"><g class="breathe-plant" style="animation-delay: -0.3s" stroke="#C9B3FF" fill="#C9B3FF" stroke-width="1.2"><path d="M0 0 Q-3 -7 -11 -10"/><circle cx="-11" cy="-10" r="1.5"/><path d="M0 0 Q-2 -9 -8 -13"/><circle cx="-8" cy="-13" r="1.5"/><path d="M0 0 Q-1 -10 -4 -14"/><circle cx="-4" cy="-14" r="1.5"/><path d="M0 0 Q0 -10 0 -15"/><circle cx="0" cy="-15" r="1.5"/><path d="M0 0 Q1 -10 4 -14"/><circle cx="4" cy="-14" r="1.5"/><path d="M0 0 Q2 -9 8 -13"/><circle cx="8" cy="-13" r="1.5"/><path d="M0 0 Q3 -7 11 -10"/><circle cx="11" cy="-10" r="1.5"/></g></g><g transform="translate(720 198)"><g class="breathe-plant" style="animation-delay: -0.3s" stroke="#FF8AD8" fill="#FF8AD8" stroke-width="1.2"><path d="M0 0 Q-4 -8 -13 -12"/><circle cx="-13" cy="-12" r="1.5"/><path d="M0 0 Q-3 -11 -10 -15"/><circle cx="-10" cy="-15" r="1.5"/><path d="M0 0 Q-1 -12 -5 -17"/><circle cx="-5" cy="-17" r="1.5"/><path d="M0 0 Q0 -13 0 -18"/><circle cx="0" cy="-18" r="1.5"/><path d="M0 0 Q1 -12 5 -17"/><circle cx="5" cy="-17" r="1.5"/><path d="M0 0 Q3 -11 10 -15"/><circle cx="10" cy="-15" r="1.5"/><path d="M0 0 Q4 -8 13 -12"/><circle cx="13" cy="-12" r="1.5"/></g></g><g transform="translate(860 198)"><g class="breathe-plant" style="animation-delay: -2.9s" stroke="#58E6D9" fill="#58E6D9" stroke-width="1.2"><path d="M0 0 Q-4 -9 -15 -13"/><circle cx="-15" cy="-13" r="1.5"/><path d="M0 0 Q-3 -12 -11 -17"/><circle cx="-11" cy="-17" r="1.5"/><path d="M0 0 Q-2 -13 -6 -19"/><circle cx="-6" cy="-19" r="1.5"/><path d="M0 0 Q0 -14 0 -20"/><circle cx="0" cy="-20" r="1.5"/><path d="M0 0 Q2 -13 6 -19"/><circle cx="6" cy="-19" r="1.5"/><path d="M0 0 Q3 -12 11 -17"/><circle cx="11" cy="-17" r="1.5"/><path d="M0 0 Q4 -9 15 -13"/><circle cx="15" cy="-13" r="1.5"/></g></g></g>
    <g filter="url(#glow)"><g transform="translate(60 198)"><g class="helico" style="animation-delay: 0.26s"><path d="M0 0 L0 -46" stroke="#7A3A12" stroke-width="2"/><g fill="url(#helico)" stroke="#FFD25A" stroke-width="0.6" stroke-opacity="0.8"><ellipse cx="0" cy="0.0" rx="3.0" ry="1.6"/><ellipse cx="0" cy="-4.2" rx="4.1" ry="1.8"/><ellipse cx="0" cy="-8.4" rx="5.2" ry="1.9"/><ellipse cx="0" cy="-12.5" rx="6.3" ry="2.0"/><ellipse cx="0" cy="-16.7" rx="7.4" ry="2.2"/><ellipse cx="0" cy="-20.9" rx="8.5" ry="2.4"/><ellipse cx="0" cy="-25.1" rx="9.6" ry="2.5"/><ellipse cx="0" cy="-29.3" rx="10.7" ry="2.7"/><ellipse cx="0" cy="-33.5" rx="11.8" ry="2.8"/><ellipse cx="0" cy="-37.6" rx="12.9" ry="3.0"/><ellipse cx="0" cy="-41.8" rx="14.0" ry="3.1"/></g></g></g><g transform="translate(190 198)"><g class="helico" style="animation-delay: 1.40s"><path d="M0 0 L0 -58" stroke="#7A3A12" stroke-width="2"/><g fill="url(#helico)" stroke="#FFD25A" stroke-width="0.6" stroke-opacity="0.8"><ellipse cx="0" cy="0.0" rx="3.0" ry="1.6"/><ellipse cx="0" cy="-5.3" rx="4.1" ry="1.8"/><ellipse cx="0" cy="-10.5" rx="5.2" ry="1.9"/><ellipse cx="0" cy="-15.8" rx="6.3" ry="2.0"/><ellipse cx="0" cy="-21.1" rx="7.4" ry="2.2"/><ellipse cx="0" cy="-26.4" rx="8.5" ry="2.4"/><ellipse cx="0" cy="-31.6" rx="9.6" ry="2.5"/><ellipse cx="0" cy="-36.9" rx="10.7" ry="2.7"/><ellipse cx="0" cy="-42.2" rx="11.8" ry="2.8"/><ellipse cx="0" cy="-47.5" rx="12.9" ry="3.0"/><ellipse cx="0" cy="-52.7" rx="14.0" ry="3.1"/></g></g></g><g transform="translate(300 198)"><g class="helico" style="animation-delay: 2.37s"><path d="M0 0 L0 -40" stroke="#7A3A12" stroke-width="2"/><g fill="url(#helico)" stroke="#FFD25A" stroke-width="0.6" stroke-opacity="0.8"><ellipse cx="0" cy="0.0" rx="3.0" ry="1.6"/><ellipse cx="0" cy="-3.6" rx="4.1" ry="1.8"/><ellipse cx="0" cy="-7.3" rx="5.2" ry="1.9"/><ellipse cx="0" cy="-10.9" rx="6.3" ry="2.0"/><ellipse cx="0" cy="-14.5" rx="7.4" ry="2.2"/><ellipse cx="0" cy="-18.2" rx="8.5" ry="2.4"/><ellipse cx="0" cy="-21.8" rx="9.6" ry="2.5"/><ellipse cx="0" cy="-25.5" rx="10.7" ry="2.7"/><ellipse cx="0" cy="-29.1" rx="11.8" ry="2.8"/><ellipse cx="0" cy="-32.7" rx="12.9" ry="3.0"/><ellipse cx="0" cy="-36.4" rx="14.0" ry="3.1"/></g></g></g><g transform="translate(500 198)"><g class="helico" style="animation-delay: 4.13s"><path d="M0 0 L0 -54" stroke="#7A3A12" stroke-width="2"/><g fill="url(#helico)" stroke="#FFD25A" stroke-width="0.6" stroke-opacity="0.8"><ellipse cx="0" cy="0.0" rx="3.0" ry="1.6"/><ellipse cx="0" cy="-4.9" rx="4.1" ry="1.8"/><ellipse cx="0" cy="-9.8" rx="5.2" ry="1.9"/><ellipse cx="0" cy="-14.7" rx="6.3" ry="2.0"/><ellipse cx="0" cy="-19.6" rx="7.4" ry="2.2"/><ellipse cx="0" cy="-24.5" rx="8.5" ry="2.4"/><ellipse cx="0" cy="-29.5" rx="9.6" ry="2.5"/><ellipse cx="0" cy="-34.4" rx="10.7" ry="2.7"/><ellipse cx="0" cy="-39.3" rx="11.8" ry="2.8"/><ellipse cx="0" cy="-44.2" rx="12.9" ry="3.0"/><ellipse cx="0" cy="-49.1" rx="14.0" ry="3.1"/></g></g></g><g transform="translate(610 198)"><g class="helico" style="animation-delay: 5.09s"><path d="M0 0 L0 -44" stroke="#7A3A12" stroke-width="2"/><g fill="url(#helico)" stroke="#FFD25A" stroke-width="0.6" stroke-opacity="0.8"><ellipse cx="0" cy="0.0" rx="3.0" ry="1.6"/><ellipse cx="0" cy="-4.0" rx="4.1" ry="1.8"/><ellipse cx="0" cy="-8.0" rx="5.2" ry="1.9"/><ellipse cx="0" cy="-12.0" rx="6.3" ry="2.0"/><ellipse cx="0" cy="-16.0" rx="7.4" ry="2.2"/><ellipse cx="0" cy="-20.0" rx="8.5" ry="2.4"/><ellipse cx="0" cy="-24.0" rx="9.6" ry="2.5"/><ellipse cx="0" cy="-28.0" rx="10.7" ry="2.7"/><ellipse cx="0" cy="-32.0" rx="11.8" ry="2.8"/><ellipse cx="0" cy="-36.0" rx="12.9" ry="3.0"/><ellipse cx="0" cy="-40.0" rx="14.0" ry="3.1"/></g></g></g><g transform="translate(790 198)"><g class="helico" style="animation-delay: 6.67s"><path d="M0 0 L0 -60" stroke="#7A3A12" stroke-width="2"/><g fill="url(#helico)" stroke="#FFD25A" stroke-width="0.6" stroke-opacity="0.8"><ellipse cx="0" cy="0.0" rx="3.0" ry="1.6"/><ellipse cx="0" cy="-5.5" rx="4.1" ry="1.8"/><ellipse cx="0" cy="-10.9" rx="5.2" ry="1.9"/><ellipse cx="0" cy="-16.4" rx="6.3" ry="2.0"/><ellipse cx="0" cy="-21.8" rx="7.4" ry="2.2"/><ellipse cx="0" cy="-27.3" rx="8.5" ry="2.4"/><ellipse cx="0" cy="-32.7" rx="9.6" ry="2.5"/><ellipse cx="0" cy="-38.2" rx="10.7" ry="2.7"/><ellipse cx="0" cy="-43.6" rx="11.8" ry="2.8"/><ellipse cx="0" cy="-49.1" rx="12.9" ry="3.0"/><ellipse cx="0" cy="-54.5" rx="14.0" ry="3.1"/></g></g></g></g>


    <!-- Pie -->
    <text x="20" y="230" font-size="10" fill="#58E6D9" letter-spacing="1"><tspan class="blink">●</tspan> WALKING WITH EYWA</text>
    <text x="860" y="230" text-anchor="end" font-size="10" fill="#9B6BFF" letter-spacing="1">PANDORA · NIGHT FOREST</text>
  </g>

  <rect x="0.75" y="0.75" width="878.5" height="238.5" rx="16" fill="none" stroke="url(#phrase)" stroke-opacity="0.6" stroke-width="1.5"/>
</svg>
